<svg xmlns="http://www.w3.org/2000/svg" viewBox="0 0 128 128" role="img" aria-label="Falppy face character">
  <defs>
    <radialGradient id="skin" cx="52%" cy="38%" r="62%">
      <stop offset="0" stop-color="#ffd6c4"/>
      <stop offset="0.62" stop-color="#efa994"/>
      <stop offset="1" stop-color="#c87968"/>
    </radialGradient>
    <linearGradient id="shine" x1="0" y1="0" x2="1" y2="1">
      <stop offset="0" stop-color="#ffffff" stop-opacity="0.35"/>
      <stop offset="1" stop-color="#ffffff" stop-opacity="0"/>
    </linearGradient>
  </defs>
  <rect width="128" height="128" rx="34" fill="#202437"/>
  <ellipse cx="64" cy="66" rx="52" ry="58" fill="url(#skin)"/>
  <path d="M26 38c12-25 60-31 78-4 4 7 6 15 6 24-13-19-31-27-54-24-12 2-21 4-30 4Z" fill="#1f1a18"/>
  <ellipse cx="44" cy="58" rx="8" ry="5" fill="#171717"/>
  <ellipse cx="85" cy="58" rx="8" ry="5" fill="#171717"/>
  <circle cx="47" cy="56" r="2" fill="#fff" opacity="0.85"/>
  <circle cx="88" cy="56" r="2" fill="#fff" opacity="0.85"/>
  <path d="M63 61c-2 10-7 18-3 23 3 4 12 4 15-1" fill="none" stroke="#b76d61" stroke-width="5" stroke-linecap="round"/>
  <path d="M46 93c10 9 27 10 39 0" fill="none" stroke="#7b3335" stroke-width="6" stroke-linecap="round"/>
  <ellipse cx="37" cy="78" rx="12" ry="7" fill="#e8897d" opacity="0.38"/>
  <ellipse cx="94" cy="78" rx="12" ry="7" fill="#e8897d" opacity="0.34"/>
  <path d="M20 28c10 4 28 5 47 2 16-3 29 1 40 12" fill="none" stroke="url(#shine)" stroke-width="8" stroke-linecap="round"/>
</svg>
